<svg xmlns="http://www.w3.org/2000/svg" viewBox="0 0 16 16" style="enable-background:new 0 0 511.999 511.999" xml:space="preserve" width="16" height="16"><path style="fill:#29abe2" d="M.586 15.67c0-4.095 3.319-7.414 7.414-7.414s7.414 3.319 7.414 7.414H.586zM11.963 4.293A3.963 3.963 0 0 1 8 8.256a3.963 3.963 0 0 1-3.963-3.963 3.963 3.963 0 0 1 7.926 0z"/><path d="M13.476 10.194a7.689 7.689 0 0 0-3.599-2.04 4.299 4.299 0 0 0 2.416-3.86C12.293 1.926 10.367 0 8 0S3.707 1.926 3.707 4.293c0 1.695.987 3.163 2.416 3.86a7.697 7.697 0 0 0-3.599 2.04A7.696 7.696 0 0 0 .256 15.67c0 .182.148.33.33.33h14.828a.33.33 0 0 0 .33-.33 7.696 7.696 0 0 0-2.268-5.476zM4.367 4.293C4.367 2.29 5.997.66 8 .66s3.633 1.63 3.633 3.633S10.003 7.926 8 7.926s-3.633-1.63-3.633-3.633zM.924 15.34C1.097 11.586 4.205 8.586 8 8.586s6.903 3 7.076 6.753H.924z"/><path d="M2.044 14.564a.33.33 0 0 1-.321-.407 6.499 6.499 0 0 1 2.971-4.033.33.33 0 0 1 .339.567 5.834 5.834 0 0 0-2.668 3.62.33.33 0 0 1-.321.253zM6.58 10.04a.33.33 0 0 1-.076-.652A6.468 6.468 0 0 1 8 9.214a.33.33 0 0 1 0 .66c-.454 0-.906.053-1.344.157a.337.337 0 0 1-.077.009z"/></svg>