<svg xmlns="http://www.w3.org/2000/svg" viewBox="0 0 18 18" style="enable-background:new 0 0 511.999 511.999" xml:space="preserve" width="18" height="18"><path style="fill:#cbbba0" d="M1.997 5.958 9 .355l7.003 5.603"/><path style="fill:#5ebae7" d="M14.602 17.723H3.398V5.958L9 1.476l5.602 4.482Z"/><path style="fill:#36a9e1" d="m9 1.476 5.602 4.482v11.765H8.72"/><path style="fill:#d5c9b3" d="M7.319 11.28h3.362v6.443H7.319V11.28z"/><path style="fill:#cbbba0" d="M9 11.28h1.681v6.443H9V11.28z"/><path style="fill:#1d1d1b" d="M14.88 18H3.12V5.824L9 1.121l5.88 4.704v12.176zm-11.205-.554h10.651V6.091L9 1.831l-5.325 4.26v11.355z"/><path style="fill:#1d1d1b" d="M10.958 17.163h-.554v-5.606H7.596v5.606h-.554v-6.16h3.916ZM9 0 5.356 2.916v-1.16h-.555v1.603L1.824 5.741l.346.433L9 .71l6.83 5.464.346-.433Z"/><path style="fill:#1d1d1b" d="M8.163 13.521h.554v1.12h-.554v-1.12z"/><path style="fill:#fff" d="M8.723 4.557h.554v2.521h-.554V4.557z"/></svg>