<svg width="64" height="67" viewBox="0 0 64 67" fill="none" xmlns="http://www.w3.org/2000/svg">
<circle cx="32" cy="35" r="31.5" fill="black" stroke="white"/>
<mask id="path-2-inside-1_1_6" fill="white">
<path d="M44.12 31.3C42 31.3 40.15 30.86 38.57 29.98C36.99 29.1 35.77 27.85 34.91 26.23C34.05 24.59 33.62 22.69 33.62 20.53C33.62 18.37 34.05 16.47 34.91 14.83C35.77 13.19 36.99 11.93 38.57 11.05C40.17 10.15 42.02 9.7 44.12 9.7C45.82 9.7 47.4 9.99 48.86 10.57C50.34 11.15 51.47 11.95 52.25 12.97C52.43 13.17 52.52 13.41 52.52 13.69C52.52 14.01 52.38 14.26 52.1 14.44C51.92 14.56 51.72 14.62 51.5 14.62C51.32 14.62 51.14 14.58 50.96 14.5C50.78 14.4 50.63 14.28 50.51 14.14C49.89 13.36 49.03 12.75 47.93 12.31C46.83 11.85 45.56 11.62 44.12 11.62C42.44 11.62 40.98 11.98 39.74 12.7C38.5 13.42 37.55 14.45 36.89 15.79C36.23 17.13 35.9 18.71 35.9 20.53C35.9 23.29 36.63 25.46 38.09 27.04C39.55 28.6 41.56 29.38 44.12 29.38C45.46 29.38 46.65 29.17 47.69 28.75C48.73 28.31 49.54 27.71 50.12 26.95C50.72 26.17 51.02 25.29 51.02 24.31V23.29C51.02 22.75 50.91 22.36 50.69 22.12C50.49 21.88 50.1 21.76 49.52 21.76H44.96C44.2 21.76 43.82 21.46 43.82 20.86C43.82 20.22 44.2 19.9 44.96 19.9H49.91C51.05 19.9 51.9 20.15 52.46 20.65C53.02 21.15 53.3 21.92 53.3 22.96V24.1C53.3 25.44 52.9 26.66 52.1 27.76C51.3 28.86 50.2 29.73 48.8 30.37C47.4 30.99 45.84 31.3 44.12 31.3Z"/>
</mask>
<path d="M44.12 31.3C42 31.3 40.15 30.86 38.57 29.98C36.99 29.1 35.77 27.85 34.91 26.23C34.05 24.59 33.62 22.69 33.62 20.53C33.62 18.37 34.05 16.47 34.91 14.83C35.77 13.19 36.99 11.93 38.57 11.05C40.17 10.15 42.02 9.7 44.12 9.7C45.82 9.7 47.4 9.99 48.86 10.57C50.34 11.15 51.47 11.95 52.25 12.97C52.43 13.17 52.52 13.41 52.52 13.69C52.52 14.01 52.38 14.26 52.1 14.44C51.92 14.56 51.72 14.62 51.5 14.62C51.32 14.62 51.14 14.58 50.96 14.5C50.78 14.4 50.63 14.28 50.51 14.14C49.89 13.36 49.03 12.75 47.93 12.31C46.83 11.85 45.56 11.62 44.12 11.62C42.44 11.62 40.98 11.98 39.74 12.7C38.5 13.42 37.55 14.45 36.89 15.79C36.23 17.13 35.9 18.71 35.9 20.53C35.9 23.29 36.63 25.46 38.09 27.04C39.55 28.6 41.56 29.38 44.12 29.38C45.46 29.38 46.65 29.17 47.69 28.75C48.73 28.31 49.54 27.71 50.12 26.95C50.72 26.17 51.02 25.29 51.02 24.31V23.29C51.02 22.75 50.91 22.36 50.69 22.12C50.49 21.88 50.1 21.76 49.52 21.76H44.96C44.2 21.76 43.82 21.46 43.82 20.86C43.82 20.22 44.2 19.9 44.96 19.9H49.91C51.05 19.9 51.9 20.15 52.46 20.65C53.02 21.15 53.3 21.92 53.3 22.96V24.1C53.3 25.44 52.9 26.66 52.1 27.76C51.3 28.86 50.2 29.73 48.8 30.37C47.4 30.99 45.84 31.3 44.12 31.3Z" fill="black"/>
<path d="M38.57 29.98L39.0566 29.1064L39.0566 29.1064L38.57 29.98ZM34.91 26.23L34.0244 26.6944L34.0267 26.6989L34.91 26.23ZM34.91 14.83L35.7956 15.2944L35.7956 15.2944L34.91 14.83ZM38.57 11.05L39.0566 11.9236L39.0603 11.9216L38.57 11.05ZM48.86 10.57L48.4908 11.4994L48.4951 11.5011L48.86 10.57ZM52.25 12.97L51.4556 13.5774L51.4799 13.6092L51.5067 13.639L52.25 12.97ZM52.1 14.44L51.5592 13.5988L51.5522 13.6033L51.5453 13.608L52.1 14.44ZM50.96 14.5L50.4744 15.3742L50.5132 15.3958L50.5539 15.4138L50.96 14.5ZM50.51 14.14L49.7272 14.7622L49.7387 14.7767L49.7507 14.7908L50.51 14.14ZM47.93 12.31L47.5442 13.2326L47.5514 13.2356L47.5586 13.2385L47.93 12.31ZM36.89 15.79L35.9929 15.3481L35.9929 15.3481L36.89 15.79ZM38.09 27.04L37.3555 27.7187L37.3599 27.7233L38.09 27.04ZM47.69 28.75L48.0645 29.6772L48.0721 29.6742L48.0796 29.671L47.69 28.75ZM50.12 26.95L49.3274 26.3403L49.325 26.3433L50.12 26.95ZM50.69 22.12L49.9218 22.7602L49.9369 22.7783L49.9528 22.7957L50.69 22.12ZM52.46 20.65L53.126 19.9041L53.126 19.9041L52.46 20.65ZM52.1 27.76L51.2913 27.1718L51.2913 27.1718L52.1 27.76ZM48.8 30.37L49.205 31.2844L49.2158 31.2795L48.8 30.37ZM44.12 30.3C42.1408 30.3 40.464 29.8902 39.0566 29.1064L38.0834 30.8536C39.836 31.8298 41.8592 32.3 44.12 32.3V30.3ZM39.0566 29.1064C37.6476 28.3216 36.5642 27.2133 35.7933 25.7611L34.0267 26.6989C34.9758 28.4867 36.3324 29.8784 38.0834 30.8536L39.0566 29.1064ZM35.7956 25.7656C35.0224 24.291 34.62 22.5552 34.62 20.53H32.62C32.62 22.8248 33.0776 24.889 34.0244 26.6944L35.7956 25.7656ZM34.62 20.53C34.62 18.5048 35.0224 16.769 35.7956 15.2944L34.0244 14.3656C33.0776 16.171 32.62 18.2352 32.62 20.53H34.62ZM35.7956 15.2944C36.5675 13.8224 37.6508 12.7066 39.0566 11.9236L38.0834 10.1764C36.3292 11.1534 34.9725 12.5576 34.0244 14.3656L35.7956 15.2944ZM39.0603 11.9216C40.4902 11.1173 42.1667 10.7 44.12 10.7V8.7C41.8733 8.7 39.8498 9.18274 38.0797 10.1784L39.0603 11.9216ZM44.12 10.7C45.704 10.7 47.1576 10.9697 48.4908 11.4994L49.2292 9.64065C47.6424 9.01026 45.936 8.7 44.12 8.7V10.7ZM48.4951 11.5011C49.8454 12.0302 50.8102 12.7334 51.4556 13.5774L53.0444 12.3625C52.1298 11.1666 50.8346 10.2698 49.2249 9.63894L48.4951 11.5011ZM51.5067 13.639C51.5127 13.6456 51.5152 13.6495 51.5158 13.6505C51.5162 13.6511 51.5163 13.6513 51.5162 13.6513C51.5162 13.6512 51.5162 13.6511 51.5162 13.6511C51.5162 13.6511 51.5163 13.6516 51.5166 13.6525C51.5169 13.6535 51.5173 13.6553 51.5178 13.658C51.5187 13.6634 51.52 13.6737 51.52 13.69H53.52C53.52 13.174 53.3458 12.6927 52.9933 12.301L51.5067 13.639ZM51.52 13.69C51.52 13.6968 51.5193 13.6918 51.5226 13.6783C51.5261 13.6643 51.5325 13.6468 51.5425 13.6289C51.5525 13.6111 51.5625 13.5991 51.5684 13.5931C51.5738 13.5876 51.5726 13.5903 51.5592 13.5988L52.6408 15.2812C53.1931 14.9261 53.52 14.3664 53.52 13.69H51.52ZM51.5453 13.608C51.5347 13.615 51.5294 13.6166 51.5277 13.6172C51.5258 13.6177 51.5179 13.62 51.5 13.62V15.62C51.9139 15.62 52.3075 15.5035 52.6547 15.272L51.5453 13.608ZM51.5 13.62C51.4727 13.62 51.4305 13.6148 51.3661 13.5862L50.5539 15.4138C50.8495 15.5452 51.1673 15.62 51.5 15.62V13.62ZM51.4456 13.6258C51.3573 13.5768 51.3035 13.5292 51.2693 13.4892L49.7507 14.7908C49.9565 15.0308 50.2027 15.2232 50.4744 15.3742L51.4456 13.6258ZM51.2928 13.5178C50.5458 12.578 49.5322 11.8739 48.3014 11.3815L47.5586 13.2385C48.5278 13.6261 49.2342 14.142 49.7272 14.7622L51.2928 13.5178ZM48.3158 11.3874C47.071 10.8669 45.6656 10.62 44.12 10.62V12.62C45.4544 12.62 46.589 12.8331 47.5442 13.2326L48.3158 11.3874ZM44.12 10.62C42.2942 10.62 40.6548 11.0125 39.2379 11.8352L40.2421 13.5648C41.3052 12.9475 42.5858 12.62 44.12 12.62V10.62ZM39.2379 11.8352C37.82 12.6585 36.7362 13.8391 35.9929 15.3481L37.7871 16.2318C38.3638 15.0609 39.18 14.1815 40.2421 13.5648L39.2379 11.8352ZM35.9929 15.3481C35.252 16.8524 34.9 18.5897 34.9 20.53H36.9C36.9 18.8303 37.208 17.4076 37.7871 16.2318L35.9929 15.3481ZM34.9 20.53C34.9 23.4679 35.6807 25.9061 37.3556 27.7187L38.8244 26.3613C37.5793 25.0139 36.9 23.1121 36.9 20.53H34.9ZM37.3599 27.7233C39.046 29.5249 41.3426 30.38 44.12 30.38V28.38C41.7774 28.38 40.054 27.6751 38.8201 26.3567L37.3599 27.7233ZM44.12 30.38C45.5639 30.38 46.8847 30.1537 48.0645 29.6772L47.3155 27.8228C46.4153 28.1863 45.3561 28.38 44.12 28.38V30.38ZM48.0796 29.671C49.2506 29.1756 50.2118 28.4781 50.915 27.5567L49.325 26.3433C48.8682 26.9419 48.2094 27.4444 47.3004 27.829L48.0796 29.671ZM50.9126 27.5597C51.6465 26.6057 52.02 25.5115 52.02 24.31H50.02C50.02 25.0685 49.7935 25.7343 49.3274 26.3403L50.9126 27.5597ZM52.02 24.31V23.29H50.02V24.31H52.02ZM52.02 23.29C52.02 22.654 51.8975 21.9574 51.4272 21.4443L49.9528 22.7957C49.9345 22.7757 49.9523 22.7834 49.9751 22.864C49.9984 22.9469 50.02 23.0833 50.02 23.29H52.02ZM51.4582 21.4798C50.9567 20.878 50.1615 20.76 49.52 20.76V22.76C49.7487 22.76 49.8845 22.7846 49.9534 22.8058C50.019 22.826 49.9787 22.8284 49.9218 22.7602L51.4582 21.4798ZM49.52 20.76H44.96V22.76H49.52V20.76ZM44.96 20.76C44.8325 20.76 44.7553 20.7471 44.7157 20.7367C44.678 20.7267 44.691 20.7235 44.7246 20.7501C44.7415 20.7634 44.7597 20.7812 44.7765 20.8034C44.7933 20.8254 44.805 20.8469 44.8125 20.8648C44.8274 20.9 44.82 20.906 44.82 20.86H42.82C42.82 21.3853 42.9982 21.9353 43.4854 22.3199C43.9275 22.6689 44.4754 22.76 44.96 22.76V20.76ZM44.82 20.86C44.82 20.7968 44.8296 20.7865 44.8211 20.808C44.8166 20.8194 44.8083 20.8362 44.7947 20.8553C44.781 20.8745 44.7652 20.8914 44.7491 20.9049C44.7162 20.9327 44.7004 20.9315 44.7315 20.9228C44.7653 20.9133 44.8369 20.9 44.96 20.9V18.9C44.4638 18.9 43.9053 19.0009 43.4609 19.3751C42.9836 19.777 42.82 20.3365 42.82 20.86H44.82ZM44.96 20.9H49.91V18.9H44.96V20.9ZM49.91 20.9C50.9275 20.9 51.492 21.1263 51.794 21.3959L53.126 19.9041C52.308 19.1737 51.1725 18.9 49.91 18.9V20.9ZM51.794 21.3959C52.0692 21.6417 52.3 22.091 52.3 22.96H54.3C54.3 21.749 53.9708 20.6583 53.126 19.9041L51.794 21.3959ZM52.3 22.96V24.1H54.3V22.96H52.3ZM52.3 24.1C52.3 25.2253 51.969 26.24 51.2913 27.1718L52.9087 28.3482C53.831 27.08 54.3 25.6547 54.3 24.1H52.3ZM51.2913 27.1718C50.6052 28.1152 49.6488 28.8825 48.3842 29.4605L49.2158 31.2795C50.7513 30.5775 51.9948 29.6048 52.9087 28.3482L51.2913 27.1718ZM48.3951 29.4557C47.1375 30.0126 45.7178 30.3 44.12 30.3V32.3C45.9622 32.3 47.6625 31.9674 49.2049 31.2843L48.3951 29.4557Z" fill="white" mask="url(#path-2-inside-1_1_6)"/>
<mask id="path-4-inside-2_1_6" fill="white">
<path d="M22.12 31.3C20 31.3 18.15 30.86 16.57 29.98C14.99 29.1 13.77 27.85 12.91 26.23C12.05 24.59 11.62 22.69 11.62 20.53C11.62 18.37 12.05 16.47 12.91 14.83C13.77 13.19 14.99 11.93 16.57 11.05C18.17 10.15 20.02 9.7 22.12 9.7C23.82 9.7 25.4 9.99 26.86 10.57C28.34 11.15 29.47 11.95 30.25 12.97C30.43 13.17 30.52 13.41 30.52 13.69C30.52 14.01 30.38 14.26 30.1 14.44C29.92 14.56 29.72 14.62 29.5 14.62C29.32 14.62 29.14 14.58 28.96 14.5C28.78 14.4 28.63 14.28 28.51 14.14C27.89 13.36 27.03 12.75 25.93 12.31C24.83 11.85 23.56 11.62 22.12 11.62C20.44 11.62 18.98 11.98 17.74 12.7C16.5 13.42 15.55 14.45 14.89 15.79C14.23 17.13 13.9 18.71 13.9 20.53C13.9 23.29 14.63 25.46 16.09 27.04C17.55 28.6 19.56 29.38 22.12 29.38C23.46 29.38 24.65 29.17 25.69 28.75C26.73 28.31 27.54 27.71 28.12 26.95C28.72 26.17 29.02 25.29 29.02 24.31V23.29C29.02 22.75 28.91 22.36 28.69 22.12C28.49 21.88 28.1 21.76 27.52 21.76H22.96C22.2 21.76 21.82 21.46 21.82 20.86C21.82 20.22 22.2 19.9 22.96 19.9H27.91C29.05 19.9 29.9 20.15 30.46 20.65C31.02 21.15 31.3 21.92 31.3 22.96V24.1C31.3 25.44 30.9 26.66 30.1 27.76C29.3 28.86 28.2 29.73 26.8 30.37C25.4 30.99 23.84 31.3 22.12 31.3Z"/>
</mask>
<path d="M22.12 31.3C20 31.3 18.15 30.86 16.57 29.98C14.99 29.1 13.77 27.85 12.91 26.23C12.05 24.59 11.62 22.69 11.62 20.53C11.62 18.37 12.05 16.47 12.91 14.83C13.77 13.19 14.99 11.93 16.57 11.05C18.17 10.15 20.02 9.7 22.12 9.7C23.82 9.7 25.4 9.99 26.86 10.57C28.34 11.15 29.47 11.95 30.25 12.97C30.43 13.17 30.52 13.41 30.52 13.69C30.52 14.01 30.38 14.26 30.1 14.44C29.92 14.56 29.72 14.62 29.5 14.62C29.32 14.62 29.14 14.58 28.96 14.5C28.78 14.4 28.63 14.28 28.51 14.14C27.89 13.36 27.03 12.75 25.93 12.31C24.83 11.85 23.56 11.62 22.12 11.62C20.44 11.62 18.98 11.98 17.74 12.7C16.5 13.42 15.55 14.45 14.89 15.79C14.23 17.13 13.9 18.71 13.9 20.53C13.9 23.29 14.63 25.46 16.09 27.04C17.55 28.6 19.56 29.38 22.12 29.38C23.46 29.38 24.65 29.17 25.69 28.75C26.73 28.31 27.54 27.71 28.12 26.95C28.72 26.17 29.02 25.29 29.02 24.31V23.29C29.02 22.75 28.91 22.36 28.69 22.12C28.49 21.88 28.1 21.76 27.52 21.76H22.96C22.2 21.76 21.82 21.46 21.82 20.86C21.82 20.22 22.2 19.9 22.96 19.9H27.91C29.05 19.9 29.9 20.15 30.46 20.65C31.02 21.15 31.3 21.92 31.3 22.96V24.1C31.3 25.44 30.9 26.66 30.1 27.76C29.3 28.86 28.2 29.73 26.8 30.37C25.4 30.99 23.84 31.3 22.12 31.3Z" fill="black"/>
<path d="M16.57 29.98L17.0566 29.1064L17.0566 29.1064L16.57 29.98ZM12.91 26.23L12.0244 26.6944L12.0267 26.6989L12.91 26.23ZM12.91 14.83L13.7956 15.2944L13.7956 15.2944L12.91 14.83ZM16.57 11.05L17.0566 11.9236L17.0603 11.9216L16.57 11.05ZM26.86 10.57L26.4908 11.4994L26.4951 11.5011L26.86 10.57ZM30.25 12.97L29.4556 13.5774L29.4799 13.6092L29.5067 13.639L30.25 12.97ZM30.1 14.44L29.5592 13.5988L29.5522 13.6033L29.5453 13.608L30.1 14.44ZM28.96 14.5L28.4744 15.3742L28.5132 15.3958L28.5539 15.4138L28.96 14.5ZM28.51 14.14L27.7272 14.7622L27.7387 14.7767L27.7507 14.7908L28.51 14.14ZM25.93 12.31L25.5442 13.2326L25.5514 13.2356L25.5586 13.2385L25.93 12.31ZM14.89 15.79L13.9929 15.3481L13.9929 15.3481L14.89 15.79ZM16.09 27.04L15.3555 27.7187L15.3599 27.7233L16.09 27.04ZM25.69 28.75L26.0645 29.6772L26.0721 29.6742L26.0796 29.671L25.69 28.75ZM28.12 26.95L27.3274 26.3403L27.325 26.3433L28.12 26.95ZM28.69 22.12L27.9218 22.7602L27.9369 22.7783L27.9528 22.7957L28.69 22.12ZM30.46 20.65L31.126 19.9041L31.126 19.9041L30.46 20.65ZM30.1 27.76L29.2913 27.1718L29.2913 27.1718L30.1 27.76ZM26.8 30.37L27.205 31.2844L27.2158 31.2795L26.8 30.37ZM22.12 30.3C20.1408 30.3 18.464 29.8902 17.0566 29.1064L16.0834 30.8536C17.836 31.8298 19.8592 32.3 22.12 32.3V30.3ZM17.0566 29.1064C15.6476 28.3216 14.5642 27.2133 13.7933 25.7611L12.0267 26.6989C12.9758 28.4867 14.3324 29.8784 16.0834 30.8536L17.0566 29.1064ZM13.7956 25.7656C13.0224 24.291 12.62 22.5552 12.62 20.53H10.62C10.62 22.8248 11.0776 24.889 12.0244 26.6944L13.7956 25.7656ZM12.62 20.53C12.62 18.5048 13.0224 16.769 13.7956 15.2944L12.0244 14.3656C11.0776 16.171 10.62 18.2352 10.62 20.53H12.62ZM13.7956 15.2944C14.5675 13.8224 15.6508 12.7066 17.0566 11.9236L16.0834 10.1764C14.3292 11.1534 12.9725 12.5576 12.0244 14.3656L13.7956 15.2944ZM17.0603 11.9216C18.4902 11.1173 20.1667 10.7 22.12 10.7V8.7C19.8733 8.7 17.8498 9.18274 16.0797 10.1784L17.0603 11.9216ZM22.12 10.7C23.704 10.7 25.1576 10.9697 26.4908 11.4994L27.2292 9.64065C25.6424 9.01026 23.936 8.7 22.12 8.7V10.7ZM26.4951 11.5011C27.8454 12.0302 28.8102 12.7334 29.4556 13.5774L31.0444 12.3625C30.1298 11.1666 28.8346 10.2698 27.2249 9.63894L26.4951 11.5011ZM29.5067 13.639C29.5127 13.6456 29.5152 13.6495 29.5158 13.6505C29.5162 13.6511 29.5163 13.6513 29.5162 13.6513C29.5162 13.6512 29.5162 13.6511 29.5162 13.6511C29.5162 13.6511 29.5163 13.6516 29.5166 13.6525C29.5169 13.6535 29.5173 13.6553 29.5178 13.658C29.5187 13.6634 29.52 13.6737 29.52 13.69H31.52C31.52 13.174 31.3458 12.6927 30.9933 12.301L29.5067 13.639ZM29.52 13.69C29.52 13.6968 29.5193 13.6918 29.5226 13.6783C29.5261 13.6643 29.5325 13.6468 29.5425 13.6289C29.5525 13.6111 29.5625 13.5991 29.5684 13.5931C29.5738 13.5876 29.5726 13.5903 29.5592 13.5988L30.6408 15.2812C31.1931 14.9261 31.52 14.3664 31.52 13.69H29.52ZM29.5453 13.608C29.5347 13.615 29.5294 13.6166 29.5277 13.6172C29.5258 13.6177 29.5179 13.62 29.5 13.62V15.62C29.9139 15.62 30.3075 15.5035 30.6547 15.272L29.5453 13.608ZM29.5 13.62C29.4727 13.62 29.4305 13.6148 29.3661 13.5862L28.5539 15.4138C28.8495 15.5452 29.1673 15.62 29.5 15.62V13.62ZM29.4456 13.6258C29.3573 13.5768 29.3035 13.5292 29.2693 13.4892L27.7507 14.7908C27.9565 15.0308 28.2027 15.2232 28.4744 15.3742L29.4456 13.6258ZM29.2928 13.5178C28.5458 12.578 27.5322 11.8739 26.3014 11.3815L25.5586 13.2385C26.5278 13.6261 27.2342 14.142 27.7272 14.7622L29.2928 13.5178ZM26.3158 11.3874C25.071 10.8669 23.6656 10.62 22.12 10.62V12.62C23.4544 12.62 24.589 12.8331 25.5442 13.2326L26.3158 11.3874ZM22.12 10.62C20.2942 10.62 18.6548 11.0125 17.2379 11.8352L18.2421 13.5648C19.3052 12.9475 20.5858 12.62 22.12 12.62V10.62ZM17.2379 11.8352C15.82 12.6585 14.7362 13.8391 13.9929 15.3481L15.7871 16.2318C16.3638 15.0609 17.18 14.1815 18.2421 13.5648L17.2379 11.8352ZM13.9929 15.3481C13.252 16.8524 12.9 18.5897 12.9 20.53H14.9C14.9 18.8303 15.208 17.4076 15.7871 16.2318L13.9929 15.3481ZM12.9 20.53C12.9 23.4679 13.6807 25.9061 15.3556 27.7187L16.8244 26.3613C15.5793 25.0139 14.9 23.1121 14.9 20.53H12.9ZM15.3599 27.7233C17.046 29.5249 19.3426 30.38 22.12 30.38V28.38C19.7774 28.38 18.054 27.6751 16.8201 26.3567L15.3599 27.7233ZM22.12 30.38C23.5639 30.38 24.8847 30.1537 26.0645 29.6772L25.3155 27.8228C24.4153 28.1863 23.3561 28.38 22.12 28.38V30.38ZM26.0796 29.671C27.2506 29.1756 28.2118 28.4781 28.915 27.5567L27.325 26.3433C26.8682 26.9419 26.2094 27.4444 25.3004 27.829L26.0796 29.671ZM28.9126 27.5597C29.6465 26.6057 30.02 25.5115 30.02 24.31H28.02C28.02 25.0685 27.7935 25.7343 27.3274 26.3403L28.9126 27.5597ZM30.02 24.31V23.29H28.02V24.31H30.02ZM30.02 23.29C30.02 22.654 29.8975 21.9574 29.4272 21.4443L27.9528 22.7957C27.9345 22.7757 27.9523 22.7834 27.9751 22.864C27.9984 22.9469 28.02 23.0833 28.02 23.29H30.02ZM29.4582 21.4798C28.9567 20.878 28.1615 20.76 27.52 20.76V22.76C27.7487 22.76 27.8845 22.7846 27.9534 22.8058C28.019 22.826 27.9787 22.8284 27.9218 22.7602L29.4582 21.4798ZM27.52 20.76H22.96V22.76H27.52V20.76ZM22.96 20.76C22.8325 20.76 22.7553 20.7471 22.7157 20.7367C22.678 20.7267 22.691 20.7235 22.7246 20.7501C22.7415 20.7634 22.7597 20.7812 22.7765 20.8034C22.7933 20.8254 22.805 20.8469 22.8125 20.8648C22.8274 20.9 22.82 20.906 22.82 20.86H20.82C20.82 21.3853 20.9982 21.9353 21.4854 22.3199C21.9275 22.6689 22.4754 22.76 22.96 22.76V20.76ZM22.82 20.86C22.82 20.7968 22.8296 20.7865 22.8211 20.808C22.8166 20.8194 22.8083 20.8362 22.7947 20.8553C22.781 20.8745 22.7652 20.8914 22.7491 20.9049C22.7162 20.9327 22.7004 20.9315 22.7315 20.9228C22.7653 20.9133 22.8369 20.9 22.96 20.9V18.9C22.4638 18.9 21.9053 19.0009 21.4609 19.3751C20.9836 19.777 20.82 20.3365 20.82 20.86H22.82ZM22.96 20.9H27.91V18.9H22.96V20.9ZM27.91 20.9C28.9275 20.9 29.492 21.1263 29.794 21.3959L31.126 19.9041C30.308 19.1737 29.1725 18.9 27.91 18.9V20.9ZM29.794 21.3959C30.0692 21.6417 30.3 22.091 30.3 22.96H32.3C32.3 21.749 31.9708 20.6583 31.126 19.9041L29.794 21.3959ZM30.3 22.96V24.1H32.3V22.96H30.3ZM30.3 24.1C30.3 25.2253 29.969 26.24 29.2913 27.1718L30.9087 28.3482C31.831 27.08 32.3 25.6547 32.3 24.1H30.3ZM29.2913 27.1718C28.6052 28.1152 27.6488 28.8825 26.3842 29.4605L27.2158 31.2795C28.7513 30.5775 29.9948 29.6048 30.9087 28.3482L29.2913 27.1718ZM26.3951 29.4557C25.1375 30.0126 23.7178 30.3 22.12 30.3V32.3C23.9622 32.3 25.6625 31.9674 27.2049 31.2843L26.3951 29.4557Z" fill="white" mask="url(#path-4-inside-2_1_6)"/>
<rect y="34" width="64" height="1" rx="0.5" fill="white"/>
<path d="M13.0176 46.1016L7.38086 43.752V42.5625L13.0176 40.207V41.7539L9.53711 43.1543L13.0176 44.5488V46.1016ZM18.0742 38.332L15.2617 48.1816H13.4688L16.2988 38.332H18.0742ZM18.5254 40.207L24.1621 42.5508V43.7461L18.5254 46.1016V44.5547L22.0059 43.1543L18.5254 41.7598V40.207Z" fill="black"/>
<path d="M13.0176 46.1016L12.8252 46.5631L13.5176 46.8517V46.1016H13.0176ZM7.38086 43.752H6.88086V44.0852L7.18848 44.2135L7.38086 43.752ZM7.38086 42.5625L7.18808 42.1012L6.88086 42.2295V42.5625H7.38086ZM13.0176 40.207H13.5176V39.4562L12.8248 39.7457L13.0176 40.207ZM13.0176 41.7539L13.2042 42.2178L13.5176 42.0917V41.7539H13.0176ZM9.53711 43.1543L9.35047 42.6904L8.1952 43.1553L9.35114 43.6184L9.53711 43.1543ZM13.0176 44.5488H13.5176V44.2105L13.2035 44.0847L13.0176 44.5488ZM13.21 45.6401L7.57324 43.2904L7.18848 44.2135L12.8252 46.5631L13.21 45.6401ZM7.88086 43.752V42.5625H6.88086V43.752H7.88086ZM7.57364 43.0238L13.2104 40.6684L12.8248 39.7457L7.18808 42.1012L7.57364 43.0238ZM12.5176 40.207V41.7539H13.5176V40.207H12.5176ZM12.8309 41.29L9.35047 42.6904L9.72375 43.6182L13.2042 42.2178L12.8309 41.29ZM9.35114 43.6184L12.8316 45.013L13.2035 44.0847L9.72307 42.6902L9.35114 43.6184ZM12.5176 44.5488V46.1016H13.5176V44.5488H12.5176ZM18.0742 38.332L18.555 38.4693L18.737 37.832H18.0742V38.332ZM15.2617 48.1816V48.6816H15.6389L15.7425 48.3189L15.2617 48.1816ZM13.4688 48.1816L12.9882 48.0436L12.8049 48.6816H13.4688V48.1816ZM16.2988 38.332V37.832H15.9223L15.8183 38.194L16.2988 38.332ZM17.5934 38.1947L14.7809 48.0444L15.7425 48.3189L18.555 38.4693L17.5934 38.1947ZM15.2617 47.6816H13.4688V48.6816H15.2617V47.6816ZM13.9493 48.3197L16.7794 38.4701L15.8183 38.194L12.9882 48.0436L13.9493 48.3197ZM16.2988 38.832H18.0742V37.832H16.2988V38.832ZM18.5254 40.207L18.7174 39.7454L18.0254 39.4576V40.207H18.5254ZM24.1621 42.5508H24.6621V42.2172L24.3541 42.0891L24.1621 42.5508ZM24.1621 43.7461L24.3549 44.2074L24.6621 44.0791V43.7461H24.1621ZM18.5254 46.1016H18.0254V46.8524L18.7182 46.5629L18.5254 46.1016ZM18.5254 44.5547L18.3388 44.0908L18.0254 44.2169V44.5547H18.5254ZM22.0059 43.1543L22.1925 43.6182L23.3478 43.1533L22.1918 42.6902L22.0059 43.1543ZM18.5254 41.7598H18.0254V42.0981L18.3394 42.2239L18.5254 41.7598ZM18.3334 40.6687L23.9701 43.0125L24.3541 42.0891L18.7174 39.7454L18.3334 40.6687ZM23.6621 42.5508V43.7461H24.6621V42.5508H23.6621ZM23.9693 43.2848L18.3326 45.6402L18.7182 46.5629L24.3549 44.2074L23.9693 43.2848ZM19.0254 46.1016V44.5547H18.0254V46.1016H19.0254ZM18.712 45.0185L22.1925 43.6182L21.8192 42.6904L18.3388 44.0908L18.712 45.0185ZM22.1918 42.6902L18.7114 41.2956L18.3394 42.2239L21.8199 43.6184L22.1918 42.6902ZM19.0254 41.7598V40.207H18.0254V41.7598H19.0254Z" fill="white"/>
<path d="M30.456 47C30.288 47 30.1387 46.9253 30.008 46.776C29.8867 46.6173 29.7887 46.4353 29.714 46.23C29.6487 46.0153 29.616 45.8333 29.616 45.684C29.616 45.3853 29.658 45.138 29.742 44.942C29.8353 44.7367 29.9427 44.592 30.064 44.508C30.1853 44.4147 30.2973 44.368 30.4 44.368C30.7267 44.368 30.988 44.5267 31.184 44.844C31.38 45.152 31.478 45.4833 31.478 45.838C31.478 45.978 31.422 46.1413 31.31 46.328C31.2073 46.5147 31.0767 46.6733 30.918 46.804C30.7593 46.9347 30.6053 47 30.456 47ZM34.7134 46.16C34.7134 46.048 34.7228 45.964 34.7414 45.908C34.7694 45.8427 34.8301 45.81 34.9234 45.81C35.0074 45.81 35.1008 45.8287 35.2034 45.866C35.3154 45.9033 35.4228 45.9453 35.5254 45.992C35.7868 46.104 36.0201 46.188 36.2254 46.244C36.4401 46.3 36.7061 46.328 37.0234 46.328C38.1808 46.328 39.0488 46.0527 39.6274 45.502C40.2154 44.9513 40.5094 44.2327 40.5094 43.346C40.5094 42.5527 40.2854 41.8573 39.8374 41.26C39.3894 40.6533 38.8201 40.1773 38.1294 39.832C37.4481 39.4867 36.7528 39.2813 36.0434 39.216L36.8414 45.138C36.8414 45.2967 36.8181 45.4273 36.7714 45.53C36.7341 45.6327 36.6408 45.684 36.4914 45.684C36.4541 45.7027 36.3841 45.4507 36.2814 44.928C36.1788 44.4053 36.0388 43.6353 35.8614 42.618C35.6561 41.4327 35.4974 40.5553 35.3854 39.986C35.2734 39.4073 35.1848 39.076 35.1194 38.992C34.3448 38.992 33.7101 39.034 33.2154 39.118C32.7208 39.1927 32.3428 39.2813 32.0814 39.384C31.8201 39.4867 31.7128 39.538 31.7594 39.538C31.7128 39.5193 31.6801 39.4913 31.6614 39.454C31.6428 39.4073 31.6288 39.342 31.6194 39.258C31.6008 39.174 31.5868 39.1133 31.5774 39.076C31.5774 38.852 31.7781 38.6747 32.1794 38.544C32.5808 38.4133 33.0008 38.3247 33.4394 38.278C33.8874 38.2313 34.1861 38.208 34.3354 38.208C35.3341 38.208 36.3748 38.4133 37.4574 38.824C38.5401 39.2253 39.4501 39.818 40.1874 40.602C40.9248 41.386 41.2934 42.3147 41.2934 43.388C41.2934 44.1907 41.0928 44.8767 40.6914 45.446C40.2901 46.006 39.7628 46.4307 39.1094 46.72C38.4654 47.0093 37.7748 47.154 37.0374 47.154C36.4401 47.154 35.9034 47.0607 35.4274 46.874C34.9514 46.6873 34.7134 46.4493 34.7134 46.16ZM45.7507 47.014C44.976 47.014 44.4113 46.8693 44.0567 46.58C43.7113 46.2907 43.5387 45.768 43.5387 45.012L43.7347 41.876V38.866C43.7347 38.6327 43.7813 38.4833 43.8747 38.418C43.968 38.3433 44.1733 38.306 44.4907 38.306L45.4427 38.334C46.6373 38.3993 47.804 38.432 48.9427 38.432C49.1853 38.432 49.3767 38.502 49.5167 38.642C49.666 38.782 49.7407 38.9733 49.7407 39.216C49.7407 39.2627 49.7267 39.3 49.6987 39.328C49.6707 39.356 49.638 39.3653 49.6007 39.356L48.9427 39.104L44.5607 39.216C44.5047 39.216 44.472 39.2113 44.4627 39.202C44.5 39.2767 44.5187 39.342 44.5187 39.398V41.876C44.948 41.904 45.3633 41.918 45.7647 41.918C46.4553 41.918 47.216 41.8853 48.0467 41.82C48.1307 41.8107 48.2567 41.8013 48.4247 41.792C48.602 41.7733 48.7 41.7733 48.7187 41.792C48.7747 41.848 48.8167 41.8993 48.8447 41.946C48.8727 41.9927 48.8913 42.058 48.9007 42.142C48.9287 42.3473 48.616 42.4827 47.9627 42.548C47.3187 42.6133 46.4553 42.6647 45.3727 42.702C45.0087 42.702 44.7053 42.7113 44.4627 42.73C44.3507 43.01 44.2947 43.458 44.2947 44.074L44.3087 44.9V45.81C44.458 45.9313 44.6213 46.0107 44.7987 46.048C44.976 46.0853 45.2653 46.104 45.6667 46.104C46.0867 46.104 46.4973 46.0807 46.8987 46.034C47.3093 45.9873 47.552 45.9593 47.6267 45.95C48.4107 45.8567 48.994 45.81 49.3767 45.81C49.6007 45.81 49.7547 45.8333 49.8387 45.88C49.932 45.9173 49.9787 45.9873 49.9787 46.09C49.9787 46.706 48.728 47.014 46.2267 47.014H45.7507ZM54.2129 47.014C54.1569 47.0327 54.1102 47.042 54.0729 47.042C54.0262 47.042 53.9749 47.028 53.9189 47C53.6762 46.6267 53.4849 46.3093 53.3449 46.048C53.2142 45.7773 52.9949 45.3107 52.6869 44.648C52.3509 43.864 51.9216 42.758 51.3989 41.33C50.8762 39.902 50.6149 39.0293 50.6149 38.712C50.6149 38.628 50.6336 38.5673 50.6709 38.53C50.7082 38.4833 50.7549 38.46 50.8109 38.46C50.8576 38.46 50.8949 38.4693 50.9229 38.488C51.0349 38.5533 51.2122 38.88 51.4549 39.468C51.7069 40.0467 52.0522 40.9147 52.4909 42.072C53.2096 43.976 53.7789 45.3853 54.1989 46.3C54.4042 46.104 54.6936 45.5253 55.0669 44.564C55.4402 43.5933 55.7809 42.52 56.0889 41.344C56.4062 40.168 56.5929 39.1693 56.6489 38.348C57.0596 38.32 57.2649 38.4833 57.2649 38.838C57.2649 39.4353 57.0969 40.3687 56.7609 41.638C56.4249 42.9073 56.0189 44.0787 55.5429 45.152C55.0669 46.216 54.6236 46.8367 54.2129 47.014Z" fill="white"/>
<rect x="23.2172" y="57.8369" width="28.97" height="2.03226" rx="1.01613" transform="rotate(-7.72187 23.2172 57.8369)" fill="white"/>
<rect x="23.2172" y="57.8369" width="28.97" height="2.03226" rx="1.01613" transform="rotate(-7.72187 23.2172 57.8369)" stroke="black"/>
<rect x="19.2172" y="56.8369" width="28.97" height="2.03226" rx="1.01613" transform="rotate(-7.72187 19.2172 56.8369)" fill="white"/>
<rect x="19.2172" y="56.8369" width="28.97" height="2.03226" rx="1.01613" transform="rotate(-7.72187 19.2172 56.8369)" stroke="black"/>
<rect x="15.8154" y="53.7803" width="28.0192" height="2.42099" rx="1.2105" transform="rotate(1.76547 15.8154 53.7803)" fill="white"/>
<rect x="15.8154" y="53.7803" width="28.0192" height="2.42099" rx="1.2105" transform="rotate(1.76547 15.8154 53.7803)" stroke="black"/>
<rect x="13.5" y="51.5" width="31" height="2" rx="1" fill="white"/>
<rect x="13.5" y="51.5" width="31" height="2" rx="1" stroke="black"/>
<rect x="23.4415" y="53.6449" width="27" height="2.10481" rx="1.05241" transform="rotate(-3.37839 23.4415 53.6449)" fill="white"/>
<rect x="23.4415" y="53.6449" width="27" height="2.10481" rx="1.05241" transform="rotate(-3.37839 23.4415 53.6449)" stroke="black"/>
</svg>
